<svg width="158" height="64" viewBox="0 0 158 64" fill="none" xmlns="http://www.w3.org/2000/svg">
<path d="M9.0623 16.9082V10.8982C9.0623 10.1526 9.65866 9.5726 10.4272 9.5726H42.2989V0.267676H12.0626C10.6424 0.267676 9.25904 0.854013 8.26919 1.8801L1.55547 8.83967C0.534885 9.89763 0 11.287 0 12.8612V18.5716C0 19.7953 0.4857 21.0317 1.29725 21.8793L34.8905 47.3595V53.3694C34.8905 54.1151 34.2941 54.6951 33.5256 54.6951H1.65999V64H31.8963C33.3166 64 34.6999 63.4137 35.6897 62.3876L42.4034 55.428C43.424 54.3701 43.9589 52.9807 43.9589 51.4065V45.6961C43.9589 44.4724 43.4794 43.3316 42.5756 42.3884L9.0623 16.9082ZM50.3591 64H59.4214V0.267676H50.3591V64ZM76.7467 53.3694V0.267676H67.6844V51.4065C67.6844 52.9807 68.2255 54.3701 69.2399 55.428L75.9536 62.3876C76.9435 63.4137 78.3268 64 79.747 64H108.336V54.6951H78.1116C77.3431 54.6951 76.7467 54.1151 76.7467 53.3694ZM149.227 36.1426C148.237 35.1165 146.854 34.5302 145.433 34.5302H130.991L158 6.53256L151.803 0L122.372 30.5087V0.267676H113.309V64H122.372V36.0789L128.981 42.8472C129.596 43.4846 130.364 43.8351 131.139 43.8351H147.063C147.831 43.8351 148.427 44.4151 148.427 45.1607V64H157.49V47.1237C157.49 45.5495 156.949 44.1601 155.934 43.1022L149.221 36.1426H149.227Z" fill="white"/>
</svg>
